<svg id="Layer_1" xmlns="http://www.w3.org/2000/svg" viewBox="0 0 222 30"><style>.st1,.st2,.st4{fill-rule:evenodd;clip-rule:evenodd;fill:#0364b8}.st2,.st4{fill:#0078d4}.st4{fill:#28a8ea}.st8{enable-background:new}.st8,.st9{opacity:.1;fill-rule:evenodd;clip-rule:evenodd}</style><path id="Fill-3" d="M29.7 16.3c.1-.4.2-.9.3-1.3 0-.2-.1-.4-.3-.5L19.5 8.7l-.1-.1c-.4-.2-.9-.2-1.2 0 0 0-.1 0-.1.1L7.8 14.4c-.2.1-.3.3-.3.5.1.4.2.9.3 1.3l10.8 7.9 11.1-7.8z" fill-rule="evenodd" clip-rule="evenodd" fill="#0a2767"/><path id="Fill-1" class="st1" d="M10.3 2C9.6 2 9 2.6 9 3.3V5l9.5 2.8L28 5V3.3c0-.7-.6-1.3-1.3-1.3H10.3z"/><path id="Fill-8" class="st2" d="M9 10h7V5H9z"/><path id="Fill-10" fill-rule="evenodd" clip-rule="evenodd" fill="#50d9ff" d="M22 10h6V5h-6z"/><path id="Rectangle" class="st1" d="M9 10h7v5H9z"/><path id="Fill-12" class="st2" d="M16 15h6v-5h-6z"/><path id="Fill-12-Copy" class="st4" d="M16 10h6V5h-6z"/><path id="Fill-12-Copy-2" class="st4" d="M22 15h6v-5h-6z"/><path id="Rectangle-Copy" class="st1" d="M16 15h6v6.9h-6z"/><path id="Fill-13" fill-rule="evenodd" clip-rule="evenodd" fill="#064a8c" d="M9.4 22H16v-7H9.4z"/><path id="Fill-14" class="st2" d="M22 22h6v-7h-6z"/><path id="Fill-15" d="M18.7 24L7 15.9l.5-.9s10.6 5.8 10.8 5.9c.1.1.3 0 .4 0 .2-.1 10.8-5.9 10.8-5.9l.5.8L18.7 24z" opacity=".5" fill-rule="evenodd" clip-rule="evenodd" fill="#0a2767"/><path id="Fill-16" d="M29.7 15.5l-10.3 5.9c-.4.3-.9.3-1.4.1l3.6 4.8 7.8 1.7c.4-.3.6-.7.6-1.2V15c0 .2-.1.4-.3.5" fill-rule="evenodd" clip-rule="evenodd" fill="#1490df"/><path id="Fill-17" class="st8" d="M30 26.9v-.7l-9.7-5.3-1.1.6c-.4.3-1.1.2-1.5 0l3.9 4.8 7.8 1.6c.4-.2.6-.6.6-1"/><path id="Fill-18" class="st8" d="M30 26.8c-.7-.4-10.2-5.7-10.2-5.7l-.2.1c-.8.4-1 .5-1.5.1l3.4 4.9 7.9 1.8c.1 0 .6-.4.6-1.2z"/><path id="Fill-19" class="st4" d="M7.3 15.5c-.2-.1-.3-.3-.3-.5v11.6c0 .8.7 1.4 1.5 1.4h20.9c.1 0 .4-.4.4-.4L7.3 15.5z"/><path id="Fill-20" class="st9" d="M17 22.7V7.3c0-.7-.6-1.3-1.3-1.3H9v7.1l-1.7.9c-.2.1-.3.3-.3.5V24h8.7c.7 0 1.3-.6 1.3-1.3"/><path id="Fill-21" class="st9" d="M16 23.7V8.3c0-.7-.6-1.3-1.3-1.3H9v6.1l-1.7.9c-.2.1-.3.4-.3.6V25h7.7c.7 0 1.3-.6 1.3-1.3"/><path id="Fill-22" class="st9" d="M16 21.7V8.3c0-.7-.6-1.3-1.3-1.3H9v6.1l-1.7.9c-.2.1-.3.3-.3.5V23h7.7c.7 0 1.3-.6 1.3-1.3"/><path id="Fill-23" class="st9" d="M15 21.8V9.2c0-.7-.6-1.2-1.3-1.2H9v5.6l-1.7.8c-.2.3-.3.4-.3.7V23h6.7c.7 0 1.3-.5 1.3-1.2"/><path id="Fill-24" class="st2" d="M1.3 7h12.5c.6 0 1.2.6 1.2 1.2v12.5c0 .7-.6 1.2-1.3 1.2H1.3C.6 22 0 21.4 0 20.8V8.2C0 7.6.6 7 1.3 7"/><path id="Fill-25" d="M5.2 16.1c.2.4.5.8.9 1.1.4.3.9.4 1.4.4.5 0 1-.1 1.5-.4.4-.3.7-.6.9-1.1.2-.5.3-1 .3-1.5s-.1-1-.3-1.5c-.2-.4-.4-.8-.8-1.1-.4-.3-.9-.4-1.5-.4-.5 0-1 .1-1.4.4-.4.3-.7.6-.9 1.1-.5.9-.5 2-.1 3m-1.7-3.9c.3-.7.9-1.2 1.6-1.6.8-.4 1.6-.6 2.5-.6.8 0 1.6.2 2.3.6.7.4 1.2.9 1.5 1.6.4.7.6 1.5.5 2.3 0 .8-.2 1.7-.6 2.4-.3.7-.9 1.2-1.6 1.6-.6.3-1.4.5-2.2.5-.8 0-1.6-.2-2.4-.6-.7-.4-1.2-.9-1.6-1.6-.3-.6-.5-1.4-.5-2.2 0-.8.2-1.6.5-2.4" fill-rule="evenodd" clip-rule="evenodd" fill="#fff"/><path d="M47.8 20.9h-2.1v-6.3l-2.1 4.1h-1.4l-2.1-4.1v6.3H38V10.1h2.1l2.8 5.8 2.8-5.8h2.1v10.8zm6.6 0h-2.1V10.1h2.1v10.8zm12.2-3.3c-.4 2.3-2 3.4-4 3.4-1.2 0-2.2-.4-2.9-1.1-1.1-1.1-1.1-2.3-1.1-4.4s0-3.3 1.1-4.4c.7-.7 1.7-1.1 2.9-1.1 2 0 3.6 1.2 4 3.4h-2.2c-.2-.9-.8-1.5-1.8-1.5-.6 0-1 .2-1.4.6-.4.5-.5 1-.5 3.1s.1 2.6.5 3.1c.3.3.8.6 1.4.6 1 0 1.6-.7 1.8-1.5h2.2zm12 3.3h-2.4L74 16.6h-1.5v4.3h-2.1V10.1h4.2c2.2 0 3.5 1.5 3.5 3.3 0 1.5-.9 2.5-2 2.8l2.5 4.7zM76 13.4c0-.8-.6-1.4-1.5-1.4h-2v2.9h2c.9-.1 1.5-.7 1.5-1.5zm13.8 2.1c0 2.1 0 3.3-1.1 4.4-.7.7-1.6 1.1-2.9 1.1-1.2 0-2.2-.4-2.9-1.1-1.1-1.1-1.1-2.3-1.1-4.4s0-3.3 1.1-4.4c.7-.7 1.7-1.1 2.9-1.1s2.2.4 2.9 1.1c1.1 1.1 1.1 2.3 1.1 4.4zm-2.1 0c0-2.1-.1-2.6-.5-3-.3-.3-.8-.6-1.4-.6s-1 .2-1.4.6c-.4.5-.5 1-.5 3s.1 2.6.5 3c.3.3.8.6 1.4.6s1-.2 1.4-.6c.4-.4.5-.9.5-3zm13.3 2.2c0 2.1-1.7 3.3-4 3.3-1.6 0-2.9-.3-3.9-1.4l1.4-1.4c.7.7 1.6.9 2.6.9 1.3 0 1.9-.5 1.9-1.4 0-.4-.1-.7-.3-.9-.2-.2-.4-.3-1-.4l-1.3-.2c-1-.1-1.6-.4-2.1-.9s-.8-1.2-.8-2.1c0-1.9 1.4-3.3 3.8-3.3 1.5 0 2.6.4 3.5 1.3l-1.3 1.3c-.7-.7-1.5-.7-2.2-.7-1.1 0-1.7.6-1.7 1.4 0 .3.1.6.3.8.2.2.5.3 1 .4l1.3.2c1 .1 1.6.4 2.1.9.4.5.7 1.2.7 2.2zm11.6-2.2c0 2.1 0 3.3-1.1 4.4-.7.7-1.6 1.1-2.9 1.1-1.2 0-2.2-.4-2.9-1.1-1.1-1.1-1.1-2.3-1.1-4.4s0-3.3 1.1-4.4c.7-.7 1.7-1.1 2.9-1.1s2.2.4 2.9 1.1c1.1 1.1 1.1 2.3 1.1 4.4zm-2.1 0c0-2.1-.1-2.6-.5-3-.3-.3-.8-.6-1.4-.6-.6 0-1 .2-1.4.6-.4.5-.5 1-.5 3s.1 2.6.5 3c.3.3.8.6 1.4.6.6 0 1-.2 1.4-.6.4-.4.5-.9.5-3zm13.4-3.5h-5v2.7h4.3v1.9h-4.3V21h-2.1V10.1h7.1V12zm10.8 0h-2.8v8.9h-2.1V12H127v-1.9h7.8V12zm16.9 3.5c0 2.1 0 3.3-1.1 4.4-.7.7-1.6 1.1-2.9 1.1s-2.2-.4-2.9-1.1c-1.1-1.1-1.1-2.3-1.1-4.4s0-3.3 1.1-4.4c.7-.7 1.7-1.1 2.9-1.1s2.2.4 2.9 1.1c1.1 1.1 1.1 2.3 1.1 4.4zm-2.1 0c0-2.1-.1-2.6-.5-3-.3-.3-.8-.6-1.4-.6s-1 .2-1.4.6c-.4.5-.5 1-.5 3s.1 2.6.5 3c.3.3.8.6 1.4.6s1-.2 1.4-.6c.3-.4.5-.9.5-3zm14.1 1.7c0 2.3-1.8 3.8-4 3.8s-4-1.5-4-3.8v-7.1h2.1v7c0 1.2.7 2 1.9 2 1.1 0 1.9-.7 1.9-2v-7h2.1v7.1zm11.3-5.2h-2.8v8.9H170V12h-2.8v-1.9h7.8V12zm10.7 8.9h-7V10.1h2.1V19h4.9v1.9zm10.8-5.4c0 2.1 0 3.3-1.1 4.4-.7.7-1.6 1.1-2.9 1.1-1.2 0-2.2-.4-2.9-1.1-1.1-1.1-1.1-2.3-1.1-4.4s0-3.3 1.1-4.4c.7-.7 1.7-1.1 2.9-1.1s2.2.4 2.9 1.1c1.1 1.1 1.1 2.3 1.1 4.4zm-2.1 0c0-2.1-.1-2.6-.5-3-.3-.3-.8-.6-1.4-.6s-1 .2-1.4.6c-.4.5-.5 1-.5 3s.1 2.6.5 3c.3.3.8.6 1.4.6s1-.2 1.4-.6c.4-.4.5-.9.5-3zm13.8 0c0 2.1 0 3.3-1.1 4.4-.7.7-1.6 1.1-2.9 1.1-1.2 0-2.2-.4-2.9-1.1-1.1-1.1-1.1-2.3-1.1-4.4s0-3.3 1.1-4.4c.7-.7 1.7-1.1 2.9-1.1s2.2.4 2.9 1.1c1.1 1.1 1.1 2.3 1.1 4.4zm-2.1 0c0-2.1-.1-2.6-.5-3-.3-.3-.8-.6-1.4-.6-.6 0-1 .2-1.4.6-.4.5-.5 1-.5 3s.1 2.6.5 3c.3.3.8.6 1.4.6.6 0 1-.2 1.4-.6.3-.4.5-.9.5-3zm15 5.4h-2.5l-2.8-4.9-1.4 1.7V21h-2.1V10.1h2.1v4.7l3.8-4.7h2.6l-3.6 4.3 3.9 6.5z" fill="#231f20"/></svg>