<svg width="16px" height="16px" viewBox="0 0 16 16" version="1.1" xmlns="http://www.w3.org/2000/svg" xmlns:xlink="http://www.w3.org/1999/xlink">
    <g id="error-occured-ico" stroke="none" stroke-width="1" fill="none" fill-rule="evenodd">
        <path d="M15.7869663,12.8736792 L9.36073821,1.78286927 C9.07673657,1.29270925 8.56804392,1 7.99997561,1 C7.4319073,1 6.92321465,1.29264445 6.63921301,1.78286927 L0.213050004,12.8736792 C-0.0710166679,13.3638392 -0.0710166679,13.9491281 0.213050004,14.439353 C0.497116675,14.9295778 1.00574429,15.2222222 1.5738126,15.2222222 L14.4263337,15.2222222 C14.994337,15.2222222 15.5030296,14.9295778 15.7870313,14.4394178 C16.0710329,13.9491929 16.0709679,13.363904 15.7869663,12.8736792 Z M8.00004064,13.4178839 C7.43606945,13.4178839 6.97725755,12.9607079 6.97725755,12.3987476 C6.97725755,11.8368521 7.43606945,11.3796762 8.00004064,11.3796762 C8.56401184,11.3796762 9.02282374,11.8368521 9.02282374,12.3987476 C9.0227587,12.9607727 8.56394681,13.4178839 8.00004064,13.4178839 Z M9.0297173,9.06152516 C9.0297173,9.62724395 8.56778379,10.0875304 8.00004064,10.0875304 C7.4322975,10.0875304 6.97036399,9.62724395 6.97036399,9.06152516 L6.97036399,4.35258045 C6.97036399,4.08417183 7.18874675,3.86656774 7.45811583,3.86656774 L8.54203049,3.86656774 C8.81146461,3.86656774 9.02978233,4.08417183 9.02978233,4.35258045 L9.02978233,9.06152516 L9.0297173,9.06152516 Z" fill="#ED941E" fill-rule="nonzero"></path>
    </g>
</svg>
